[Header]
FileType HTR
DataType HTRS
FileVersion 1
NumSegments 22
NumFrames 8
DataFrameRate 24
EulerRotationOrder ZYX
CalibrationUnits mm
RotationUnits Degrees
GlobalAxisofGravity Y
BoneLengthAxis Y
ScaleFactor 1.0
[SegmentNames&Hierarchy]
reference	GLOBAL
Hips	reference
Spine	Hips
Spine1	Spine
Neck	Spine1
Head	Neck
LeftShoulder	Spine1
LeftArm	LeftShoulder
LeftForeArm	LeftArm
LeftHand	LeftForeArm
RightShoulder	Spine1
RightArm	RightShoulder
RightForeArm	RightArm
RightHand	RightForeArm
LeftUpLeg	Hips
LeftLeg	LeftUpLeg
LeftFoot	LeftLeg
LeftToeBase	LeftFoot
RightUpLeg	Hips
RightLeg	RightUpLeg
RightFoot	RightLeg
RightToeBase	RightFoot
[BasePosition]
reference	0	0	0	0	0	0	1
Hips	0	0	0	0	0	0	1
Spine	0	0	0	0	-0	90	1
Spine1	0	0	0	0	0	0	1
Neck	0	0	0	-7.352430803	-7.352430803	90	1
Head	0	0	0	0	-0	90	1
LeftShoulder	0	0	0	0	0	0	1
LeftArm	0	0	0	0	0	0	1
LeftForeArm	0	0	0	0	0	0	1
LeftHand	0	0	0	0	0	0	1
RightShoulder	0	0	0	0	-0	180	1
RightArm	0	0	0	0	-0	180	1
RightForeArm	0	0	0	0	-0	180	1
RightHand	0	0	0	0	-0	180	1
LeftUpLeg	0	0	0	0	-0	-90	1
LeftLeg	0	0	0	0	-0	-90	1
LeftFoot	0	0	0	66.57150701	-66.57150701	-90	1
LeftToeBase	0	0	0	0	-90	0	1
RightUpLeg	0	0	0	0	-0	-90	1
RightLeg	0	0	0	0	-0	-90	1
RightFoot	0	0	0	66.57150701	-66.57150701	-90	1
RightToeBase	0	0	0	0	-90	0	1
[reference]
28	0	0	0	0	-0	0	1.0
29	0	0	0	0	-0	0	1.0
30	0	0	0	0	-0	0	1.0
31	0	0	0	0	-0	0	1.0
32	0	0	0	0	-0	0	1.0
33	0	0	0	0	-0	0	1.0
34	0	0	0	0	-0	0	1.0
35	0	0	0	0	-0	0	1.0
[Hips]
28	3.620976448	8.266742706	-0.6256086826	185.1090546	-101.8490219	-189.4728851	1.0
29	3.828926325	8.163200378	-0.7318636179	190.7844849	-101.5499649	-195.3551178	1.0
30	4.006504059	8.151809692	-0.804125607	187.6287537	-102.3986206	-192.8427887	1.0
31	4.175060272	8.236068726	-0.8556400537	182.6386566	-104.7227402	-188.7402649	1.0
32	4.347433567	8.350943565	-0.8841547966	178.7746277	-107.5980606	-185.0444183	1.0
33	4.515328884	8.470001221	-0.9064156413	176.1099396	-110.0589447	-182.0749359	1.0
34	4.675629616	8.547389984	-0.9286159277	175.6447754	-111.6653671	-181.4948883	1.0
35	4.844614029	8.568815231	-0.9574404955	174.9812469	-111.9377747	-180.5875702	1.0
[Spine]
28	0	0.7478299737	0	4.316382408	6.384665966	-85.04906464	1.0
29	0	0.7478299737	0	2.699565649	5.842208862	-84.12271118	1.0
30	0	0.7478299737	0	1.359881282	4.580732346	-84.68508148	1.0
31	0	0.7478299737	0	1.900319576	2.691564798	-85.78367615	1.0
32	0	0.7478299737	0	1.571123242	0.3954095244	-87.24015808	1.0
33	0	0.7478299737	0	0.8886846304	-1.845760822	-88.82222748	1.0
34	0	0.7478299737	0	-0.06460502744	-3.366639137	-89.69017029	1.0
35	0	0.7478299737	0	-0.7934494615	-3.795291185	-90.07591248	1.0
[Spine1]
28	0	2.049309969	0	4.637299538	2.123552322	1.483141422	1.0
29	0	2.049309969	0	7.474081516	1.898434043	1.459216475	1.0
30	0	2.049309969	0	10.07507133	1.39264822	1.705440044	1.0
31	0	2.049309969	0	8.619417191	0.7865896225	1.715208292	1.0
32	0	2.049309969	0	7.762401581	-0.005664903205	2.021324873	1.0
33	0	2.049309969	0	7.083431721	-0.7674285769	2.539355278	1.0
34	0	2.049309969	0	7.346465111	-1.316087008	2.659388065	1.0
35	0	2.049309969	0	7.111558914	-1.421239257	2.052403927	1.0
[Neck]
28	0	2.231709957	0	-11.8568182	11.46050835	-91.19568634	1.0
29	0	2.231709957	0	-12.1763401	12.22953415	-90.25138855	1.0
30	0	2.231709957	0	-12.47745514	12.77786064	-90.78495026	1.0
31	0	2.231709957	0	-10.30860901	12.8378582	-89.80032349	1.0
32	0	2.231709957	0	-8.463022232	12.84527779	-88.84207153	1.0
33	0	2.231709957	0	-7.653715134	12.71377087	-88.4278183	1.0
34	0	2.231709957	0	-7.631057739	12.6654501	-87.87266541	1.0
35	0	2.231709957	0	-7.251843452	12.49083328	-87.31381226	1.0
[Head]
28	0	1.413589954	0.1823999882	-10.55099487	4.407749653	-94.44991302	1.0
29	0	1.413589954	0.1823999882	-9.990503311	5.233292103	-95.51048279	1.0
30	0	1.413589954	0.1823999882	-9.589447021	5.741109848	-93.16536713	1.0
31	0	1.413589954	0.1823999882	-9.356620789	5.743516445	-92.82627869	1.0
32	0	1.413589954	0.1823999882	-9.837146759	5.749259949	-93.59243011	1.0
33	0	1.413589954	0.1823999882	-9.377568245	5.645102978	-93.76792145	1.0
34	0	1.413589954	0.1823999882	-8.269491196	5.638066769	-93.63939667	1.0
35	0	1.413589954	0.1823999882	-8.138467789	5.431579113	-92.96220398	1.0
[LeftShoulder]
28	0.3649300039	1.825889945	-0.04271000251	-4.515232563	-6.749369621	8.281021118	1.0
29	0.3649300039	1.825889945	-0.04271000251	-6.98695612	-5.766226768	6.289812565	1.0
30	0.3649300039	1.825889945	-0.04271000251	-10.10685349	-6.476513386	4.682648659	1.0
31	0.3649300039	1.825889945	-0.04271000251	-10.62627888	-7.640869141	3.206534624	1.0
32	0.3649300039	1.825889945	-0.04271000251	-11.23278427	-8.371450424	2.042032719	1.0
33	0.3649300039	1.825889945	-0.04271000251	-11.75465965	-9.168169022	1.824545979	1.0
34	0.3649300039	1.825889945	-0.04271000251	-11.95659447	-9.324206352	2.458606243	1.0
35	0.3649300039	1.825889945	-0.04271000251	-12.61230659	-9.289364815	3.514783144	1.0
[LeftArm]
28	1.24003005	0	0	8.844955444	21.94214249	-69.3928833	1.0
29	1.24003005	0	0	17.04786491	18.73068619	-70.81341553	1.0
30	1.24003005	0	0	26.07623482	15.74411201	-74.36736298	1.0
31	1.24003005	0	0	34.13665009	11.6324501	-76.86936951	1.0
32	1.24003005	0	0	43.66511917	8.912526131	-79.30886078	1.0
33	1.24003005	0	0	50.7045517	6.221316814	-80.83097076	1.0
34	1.24003005	0	0	54.65563202	2.399859905	-80.51660156	1.0
35	1.24003005	0	0	56.92331696	-1.323615313	-78.22735596	1.0
[LeftForeArm]
28	2.847419977	0	0	-1.162236929	-0.9510765076	-13.47237396	1.0
29	2.847419977	0	0	-3.969226599	-1.225711226	-11.10661793	1.0
30	2.847419977	0	0	-7.881690502	-1.30075717	-7.72247076	1.0
31	2.847419977	0	0	-11.5017519	-4.047934055	-6.672446251	1.0
32	2.847419977	0	0	-14.18263817	-10.64943123	-2.089978695	1.0
33	2.847419977	0	0	-13.14357281	-19.55981445	1.612349749	1.0
34	2.847419977	0	0	-7.733373165	-31.51423454	2.622794628	1.0
35	2.847419977	0	0	1.268142104	-46.3927803	-0.1874856353	1.0
[LeftHand]
28	2.258270025	0	0	-1.278261185	0.4164254069	-1.08596015	1.0
29	2.258270025	0	0	-4.089153767	0.234410882	-1.11242795	1.0
30	2.258270025	0	0	-7.970103741	0.0787133947	-2.007744312	1.0
31	2.258270025	0	0	-11.73820591	-0.2948777378	0.1223130375	1.0
32	2.258270025	0	0	-14.3093996	-3.146486044	-2.523193598	1.0
33	2.258270025	0	0	-12.89273262	-5.331984997	0.5414425135	1.0
34	2.258270025	0	0	-7.41842556	-7.867239952	6.131026268	1.0
35	2.258270025	0	0	0.6878530383	-10.11515808	5.584141731	1.0
[RightShoulder]
28	-0.3646599948	1.825889945	-0.04271000251	-11.08115387	12.99295425	174.3393097	1.0
29	-0.3646599948	1.825889945	-0.04271000251	-12.14925098	12.93267345	175.4966736	1.0
30	-0.3646599948	1.825889945	-0.04271000251	-11.99653053	13.12569618	176.419632	1.0
31	-0.3646599948	1.825889945	-0.04271000251	-10.94766235	11.76869965	178.0907745	1.0
32	-0.3646599948	1.825889945	-0.04271000251	-10.30549526	10.30444241	178.5470428	1.0
33	-0.3646599948	1.825889945	-0.04271000251	-9.264497757	9.654191017	178.0792542	1.0
34	-0.3646599948	1.825889945	-0.04271000251	-8.400125504	9.186986923	177.0591125	1.0
35	-0.3646599948	1.825889945	-0.04271000251	-7.111663818	8.77914238	176.1199951	1.0
[RightArm]
28	-1.24003005	0	0	69.60192108	14.34816551	-103.4868317	1.0
29	-1.24003005	0	0	68.33721161	13.11724377	-102.0623016	1.0
30	-1.24003005	0	0	62.70718384	10.44579792	-100.1757355	1.0
31	-1.24003005	0	0	54.8105011	6.163851261	-98.9332428	1.0
32	-1.24003005	0	0	45.9142952	1.839955807	-98.35098267	1.0
33	-1.24003005	0	0	35.07559586	-1.876575351	-100.3436432	1.0
34	-1.24003005	0	0	26.34043694	-5.554768085	-103.7939453	1.0
35	-1.24003005	0	0	23.82312965	-9.698471069	-107.1314392	1.0
[RightForeArm]
28	-2.847419977	0	0	-2.70970583	62.4485817	161.3968811	1.0
29	-2.847419977	0	0	2.582104206	52.23900223	167.3766937	1.0
30	-2.847419977	0	0	7.102769852	39.59923553	172.2797852	1.0
31	-2.847419977	0	0	9.225673676	27.01502228	176.2161713	1.0
32	-2.847419977	0	0	7.188385487	16.06007767	178.184845	1.0
33	-2.847419977	0	0	6.092043877	9.502676964	181.0359802	1.0
34	-2.847419977	0	0	8.416286469	6.245185852	185.0357971	1.0
35	-2.847419977	0	0	10.98658657	6.087917805	187.8388977	1.0
[RightHand]
28	-2.258270025	0	0	8.167945862	12.84099674	176.0460968	1.0
29	-2.258270025	0	0	8.120592117	14.08333778	174.5927887	1.0
30	-2.258270025	0	0	8.797430038	13.23529243	170.5868988	1.0
31	-2.258270025	0	0	8.781791687	9.953338623	164.3619385	1.0
32	-2.258270025	0	0	6.585907459	5.527170658	162.4252014	1.0
33	-2.258270025	0	0	5.861956596	1.239566565	166.7711945	1.0
34	-2.258270025	0	0	8.137125969	0.1029784679	174.0856628	1.0
35	-2.258270025	0	0	10.56817341	0.6234964132	179.8911743	1.0
[LeftUpLeg]
28	0.9119900465	0	0	-23.22154999	-8.734163284	98.76059723	1.0
29	0.9119900465	0	0	-26.07704353	-5.199250221	100.3129425	1.0
30	0.9119900465	0	0	-25.58636093	-6.606636047	101.2543335	1.0
31	0.9119900465	0	0	-23.72551155	-5.359004974	98.79424286	1.0
32	0.9119900465	0	0	-21.67307663	-4.148915291	95.76896667	1.0
33	0.9119900465	0	0	-18.74746132	-3.816825151	93.90700531	1.0
34	0.9119900465	0	0	-14.78578568	-2.376466274	93.07270813	1.0
35	0.9119900465	0	0	-10.32301521	1.40819931	91.86134338	1.0
[LeftLeg]
28	0	-4.371409893	0	30.58218765	-2.948586464	80.52330017	1.0
29	0	-4.371409893	0	34.84415054	-6.295889854	76.94218445	1.0
30	0	-4.371409893	0	33.70345688	-4.591560364	75.62316895	1.0
31	0	-4.371409893	0	34.88395691	-4.569732666	76.85325623	1.0
32	0	-4.371409893	0	37.30093002	-4.475027084	78.40894318	1.0
33	0	-4.371409893	0	40.07463074	-3.09537673	79.00788879	1.0
34	0	-4.371409893	0	43.09111786	-1.887522221	78.99284363	1.0
35	0	-4.371409893	0	45.60783386	-1.309930086	81.72270203	1.0
[LeftFoot]
28	0	-3.918009996	0	-114.85495	101.3456879	-69.25689697	1.0
29	0	-3.918009996	0	-102.3522568	96.04148865	-52.35552979	1.0
30	0	-3.918009996	0	-74.92754364	97.46969604	-21.84226036	1.0
31	0	-3.918009996	0	-70.25334167	101.9420776	-14.80910873	1.0
32	0	-3.918009996	0	-73.68734741	103.6979752	-18.14086151	1.0
33	0	-3.918009996	0	-74.65822601	103.1767807	-20.4211731	1.0
34	0	-3.918009996	0	-71.61886597	103.7237015	-17.66036224	1.0
35	0	-3.918009996	0	-72.96556091	102.2853851	-20.14126778	1.0
[LeftToeBase]
28	0	-0.5927900076	1.367989898	0	0	0	1.0
29	0	-0.5927900076	1.367989898	0	0	0	1.0
30	0	-0.5927900076	1.367989898	0	0	0	1.0
31	0	-0.5927900076	1.367989898	0	0	0	1.0
32	0	-0.5927900076	1.367989898	0	0	0	1.0
33	0	-0.5927900076	1.367989898	0	0	0	1.0
34	0	-0.5927900076	1.367989898	0	0	0	1.0
35	0	-0.5927900076	1.367989898	0	0	0	1.0
[RightUpLeg]
28	-0.9119900465	0	0	-3.458406925	-4.499331474	99.03445435	1.0
29	-0.9119900465	0	0	-7.060822964	-3.17666316	101.0784073	1.0
30	-0.9119900465	0	0	-8.28061676	-5.046111584	101.2669601	1.0
31	-0.9119900465	0	0	-7.336593151	-6.803189754	100.4852448	1.0
32	-0.9119900465	0	0	-6.124150276	-7.873324394	99.33804321	1.0
33	-0.9119900465	0	0	-4.500250816	-8.310717583	97.87444305	1.0
34	-0.9119900465	0	0	-2.52614522	-8.038568497	96.71710205	1.0
35	-0.9119900465	0	0	-1.632395983	-7.750385284	95.54762268	1.0
[RightLeg]
28	0	-4.371409893	0	34.19227219	5.734079361	85.89378357	1.0
29	0	-4.371409893	0	39.25219727	6.596597672	86.89780426	1.0
30	0	-4.371409893	0	40.01544189	7.255193233	86.57249451	1.0
31	0	-4.371409893	0	37.05937958	6.701752663	86.38851929	1.0
32	0	-4.371409893	0	31.78761292	4.816391945	85.4444046	1.0
33	0	-4.371409893	0	25.66000175	2.006228209	85.13421631	1.0
34	0	-4.371409893	0	19.59943581	0.3161279857	86.28381348	1.0
35	0	-4.371409893	0	15.22647476	-0.02729669586	87.60552979	1.0
[RightFoot]
28	0	-3.918009996	0	12.42643833	58.61450958	70.2935791	1.0
29	0	-3.918009996	0	6.372786045	57.92255402	65.15290833	1.0
30	0	-3.918009996	0	6.654214382	58.89308167	64.28591919	1.0
31	0	-3.918009996	0	7.606493473	59.22087097	63.0599823	1.0
32	0	-3.918009996	0	9.335232735	60.23998642	61.53656006	1.0
33	0	-3.918009996	0	11.49852848	61.83227921	60.23549652	1.0
34	0	-3.918009996	0	12.05807114	62.67381668	57.26928711	1.0
35	0	-3.918009996	0	13.3845787	63.17872238	55.81949234	1.0
[RightToeBase]
28	0	-0.5927900076	1.367989898	0	0	0	1.0
29	0	-0.5927900076	1.367989898	0	0	0	1.0
30	0	-0.5927900076	1.367989898	0	0	0	1.0
31	0	-0.5927900076	1.367989898	0	0	0	1.0
32	0	-0.5927900076	1.367989898	0	0	0	1.0
33	0	-0.5927900076	1.367989898	0	0	0	1.0
34	0	-0.5927900076	1.367989898	0	0	0	1.0
35	0	-0.5927900076	1.367989898	0	0	0	1.0
[EndOfFile]
